<svg xmlns="http://www.w3.org/2000/svg" viewBox="0 0 64 64" fill="none" width="64" height="64">
  <defs>
    <linearGradient id="shieldGrad" x1="0" y1="0" x2="64" y2="64" gradientUnits="userSpaceOnUse">
      <stop offset="0%" stop-color="#1E293B" />
      <stop offset="100%" stop-color="#0F172A" />
    </linearGradient>

    <linearGradient id="blueGlow" x1="8" y1="8" x2="56" y2="56" gradientUnits="userSpaceOnUse">
      <stop offset="0%" stop-color="#60A5FA" />
      <stop offset="50%" stop-color="#2563EB" />
      <stop offset="100%" stop-color="#1D4ED8" />
    </linearGradient>

    <linearGradient id="cyanFacet" x1="16" y1="12" x2="48" y2="52" gradientUnits="userSpaceOnUse">
      <stop offset="0%" stop-color="#38BDF8" />
      <stop offset="100%" stop-color="#0284C7" />
    </linearGradient>

    <linearGradient id="amberGold" x1="24" y1="20" x2="40" y2="44" gradientUnits="userSpaceOnUse">
      <stop offset="0%" stop-color="#FCD34D" />
      <stop offset="60%" stop-color="#F59E0B" />
      <stop offset="100%" stop-color="#D97706" />
    </linearGradient>
  </defs>

  <!-- Outer Hexagonal Industrial Shield -->
  <path
    d="M32 4L54 16V40L32 58L10 40V16L32 4Z"
    fill="url(#shieldGrad)"
    stroke="#334155"
    stroke-width="1.5"
  />

  <!-- Outer Isometric Facets -->
  <path d="M32 4L54 16L32 26L10 16L32 4Z" fill="#1E293B" opacity="0.6" />
  <path d="M10 16L32 26V58L10 40V16Z" fill="#0F172A" opacity="0.9" />
  <path d="M54 16L32 26V58L54 40V16Z" fill="#1E293B" opacity="0.8" />

  <!-- Primary Capital 'M' Architectural Geometry -->
  <!-- Left 'M' Pillar -->
  <path
    d="M16 46V20L23 20V46H16Z"
    fill="url(#blueGlow)"
  />

  <!-- Right 'M' Pillar -->
  <path
    d="M41 46V20L48 20V46H41Z"
    fill="url(#cyanFacet)"
  />

  <!-- Left Diagonal 'M' Beam -->
  <path
    d="M23 20L32 35L27.5 38L19.5 24.5L23 20Z"
    fill="#93C5FD"
  />

  <!-- Right Diagonal 'M' Beam -->
  <path
    d="M41 20L32 35L36.5 38L44.5 24.5L41 20Z"
    fill="#3B82F6"
  />

  <!-- Center Golden Geological Crystal Core -->
  <polygon
    points="32,24 38.5,33 32,42 25.5,33"
    fill="url(#amberGold)"
  />
  <polygon
    points="32,27 36,33 32,39 28,33"
    fill="#FFFBEB"
    opacity="0.8"
  />
  <circle cx="32" cy="33" r="1.5" fill="#FFFFFF" />
</svg>
